<svg version="1" xmlns="http://www.w3.org/2000/svg" width="354.667" height="354.667" viewBox="0 0 266.000000 266.000000"><path d="M74 110.8c0 39.9-.2 45.8-1.6 48.8-2.1 4.4-5 6.4-9.3 6.4-3.7 0-11.4-4-13-6.8-.8-1.2-1 4-.8 17.3l.2 19 7 1.8c8.1 2.1 22.2 2.4 28.6.7 13.2-3.6 20.1-11.6 23.3-27.3 1.3-6.3 1.6-15.8 1.6-56.4V65.5H74v45.3zM140 78.5c-1.7 7.1-3.2 13.9-3.4 15-.3 1.1-1.9 8.1-3.6 15.5-1.7 7.4-3.3 14.2-3.5 15-.2.8-.9 3.7-1.5 6.5-.6 2.7-1.3 5.7-1.5 6.5-.2.8-.9 3.7-1.5 6.5-.6 2.7-1.3 5.9-1.6 7-.2 1.1-1.2 5.8-2.4 10.5-3.7 15.7-8 34.8-8 35.4 0 .3 8.2.6 18.3.6h18.3l1.4-8c.7-4.4 1.6-8.1 1.9-8.1.3-.1 5.5-.2 11.5-.3 12.3-.2 11.8-.6 13.1 9.5.4 3 .9 5.7 1.2 6.1.2.5 3.8.8 7.9.8h7.4l-1.5 2.4c-2.2 3.3-3 11.6-1.5 16 1.5 4.6 6.1 10 10.3 12.1 3.6 1.8 11.9 2.2 15.8.7 9.7-3.7 15.1-15.3 11.8-25.3-1.5-4.4-7.4-10.6-11.7-12.1-2.2-.9-3.4-2-3.8-3.8-.3-1.4-.9-4.1-1.4-6-.5-1.9-1.3-5.5-1.9-8-.6-2.5-1.7-7.4-2.5-11-1.3-5.5-2.4-10.5-4.1-18-1-4.4-4.7-20.7-5-22-.2-.8-2.7-11.6-5.6-24-2.8-12.4-5.7-24.8-6.3-27.5l-1.1-5h-42.4l-3.1 13zm25.4 30c.4 2.7 1.1 8.1 1.6 12 1.8 12 2 13.9 2.6 18.5.3 2.5.9 6.2 1.4 8.2.4 2 .5 3.9.2 4.3-.3.3-3.6.5-7.4.5h-7l.7-4.8c.5-4.1 1.6-11.5 3-20.2.2-1.4.9-6.3 1.5-11 1-7.2 1.5-10.7 1.9-12.9.3-1.4 1 1.1 1.5 5.4z"/></svg>